<svg width="117" height="60" viewBox="0 0 117 60" fill="none" xmlns="http://www.w3.org/2000/svg">
<path d="M8.32908 53.6807L6.32489 53.6807L6.32489 44.1856L8.32908 44.1856L8.32908 47.7359L18.0708 47.7359L18.0708 50.1303L8.32908 50.1303L8.32908 53.6807Z" fill="#F2F3F8"/>
<path d="M18.0708 44.1611L6.32489 40.0493L6.32489 37.5723L18.0708 33.411L18.0708 35.9045L15.5737 36.6971L15.5737 40.9575L18.0708 41.7336L18.0708 44.1611ZM10.3661 39.3392L13.7502 40.3961L13.7502 37.2751L10.3661 38.3319L8.55907 38.8108L8.55907 38.8438C9.3476 39.042 9.94995 39.2071 10.3661 39.3392Z" fill="#F2F3F8"/>
<path d="M18.0708 31.2613L6.32489 31.2613L6.32489 28.8669L16.083 28.8669L16.083 23.3185L18.0708 23.3185L18.0708 31.2613Z" fill="#F2F3F8"/>
<path d="M18.0708 20.8648L6.32489 20.8648L6.32489 18.4703L18.0708 18.4703L18.0708 20.8648Z" fill="#F2F3F8"/>
<path d="M18.3336 10.91C18.3336 12.5063 17.9996 13.7448 17.3315 14.6255C16.6525 15.5062 15.6887 15.9686 14.4402 16.0126L14.4402 13.6677C15.1411 13.5907 15.6449 13.343 15.9516 12.9246C16.2582 12.4953 16.4115 11.8568 16.4115 11.0091C16.4115 10.3376 16.2911 9.78713 16.0501 9.35779C15.7982 8.92844 15.4149 8.71378 14.9002 8.71378C14.714 8.71378 14.5497 8.7413 14.4074 8.79634C14.254 8.84038 14.1226 8.93945 14.0131 9.09358C13.8926 9.2477 13.7995 9.3798 13.7338 9.48989C13.6572 9.59998 13.5805 9.80365 13.5038 10.1009C13.4162 10.3981 13.356 10.6238 13.3231 10.7779C13.2793 10.932 13.2081 11.2183 13.1096 11.6366C12.9891 12.143 12.885 12.5613 12.7974 12.8916C12.7098 13.2109 12.5729 13.5686 12.3867 13.965C12.2006 14.3503 11.9979 14.6585 11.7789 14.8897C11.5489 15.1099 11.2532 15.297 10.8918 15.4511C10.5194 15.6053 10.0978 15.6823 9.62687 15.6823C8.49883 15.6823 7.63363 15.2695 7.03128 14.4438C6.41798 13.6072 6.11133 12.5118 6.11133 11.1577C6.11133 9.81465 6.42893 8.74129 7.06414 7.93766C7.69935 7.13401 8.60287 6.68816 9.77472 6.60009L9.77472 8.89542C9.20523 8.96148 8.76715 9.20366 8.4605 9.622C8.15385 10.0293 8.00052 10.5467 8.00052 11.1742C8.00052 11.8238 8.12647 12.3412 8.37836 12.7265C8.63025 13.1118 8.96429 13.3044 9.38046 13.3044C9.82948 13.3044 10.158 13.1173 10.3661 12.743C10.5742 12.3577 10.7823 11.6861 10.9904 10.7284C11.1108 10.1559 11.2258 9.68805 11.3354 9.32476C11.4339 8.96147 11.5818 8.57066 11.7789 8.15232C11.9651 7.72298 12.1732 7.39272 12.4032 7.16154C12.6332 6.91934 12.9398 6.72118 13.3231 6.56706C13.6955 6.40193 14.1281 6.31936 14.6209 6.31936C15.7818 6.31936 16.6908 6.7432 17.3479 7.59088C18.005 8.43856 18.3336 9.54494 18.3336 10.91Z" fill="#F2F3F8"/>
<rect x="1.14584" y="58.6459" width="57.2919" height="22.1529" transform="rotate(-90 1.14584 58.6459)" stroke="#F2F3F8" stroke-width="2.29168"/>
<path d="M109.597 13.5925C112.893 13.5925 115.565 11.0011 115.565 7.80453C115.565 4.60792 112.893 2.01655 109.597 2.01655C106.3 2.01655 103.628 4.60792 103.628 7.80453C103.628 11.0011 106.3 13.5925 109.597 13.5925Z" fill="#F2F3F8"/>
<path d="M69.611 21.2873L55.8025 0.208191L36.666 31.9344L46.859 39.2232L55.8977 24.2335L78.0724 59.7918L88.4748 52.3554L76.7087 32.8509L82.7852 24.2335L105.962 57.8788L116.111 50.627L82.9057 2.43481L69.611 21.2873Z" fill="#F2F3F8"/>
</svg>
